# xmcd
#
# Track frame offsets:
#	150
#	24030
#	47160
#	60557
#	72952
#	95792
#	114992
#	131320
#	156652
#	171840
#	193680
#	217600
#	240587
#	253947
#	266347
#	289320
#	308492
#	324810
#
# Disc length: 4666 seconds
#
# Revision: 1
# Processed by: cddbd v1.5.2PL0 Copyright (c) Steve Scherf et al.
# Submitted via: EasyCDDAExtractor 2010.6.0.0
#
DISCID=f6123812
DTITLE=Gerson Rufino - Chuva De Fogo
DYEAR=2002
DGENRE=Gospel
TTITLE0=O Pai Te Espera
TTITLE1=Dia De Sol
TTITLE2=Toca O Cajado Nele
TTITLE3=Chuva De Fogo
TTITLE4=A Bencao Que Deus Da
TTITLE5=Coracao Ferido
TTITLE6=Uncao De Jeova
TTITLE7=Alem Da Medicina
TTITLE8=Quem Eh Que Nao Gosta?
TTITLE9=Toca-Me Senhor
TTITLE10=O Pai Te Espera (Pb)
TTITLE11=Dia De Sol (Pb)
TTITLE12=Toca O Cajado Nele (Pb)
TTITLE13=Chuva De Fogo (Pb)
TTITLE14=A Bencao Que Deus Da (Pb)
TTITLE15=Coracao Ferido (Pb)
TTITLE16=Uncao De Jeova (Pb)
TTITLE17=Alem Da Medicina (Pb)
EXTD=2002
EXTT0=
EXTT1=
EXTT2=
EXTT3=
EXTT4=
EXTT5=
EXTT6=
EXTT7=
EXTT8=
EXTT9=
EXTT10=
EXTT11=
EXTT12=
EXTT13=
EXTT14=
EXTT15=
EXTT16=
EXTT17=
PLAYORDER=
